<svg height="512" width="512" stroke="#000" fill="#b90404" xmlns="http://www.w3.org/2000/svg"><path d="M400 360h32v-48a8 8 0 016.537-7.865l37.685-7.009A225.557 225.557 0 00474.83 208H432a8 8 0 01-7.919-6.868l-7.5-52.46L373.578 120H336a8 8 0 01-8-8V43.822A224.437 224.437 0 00117.4 80H152v16H99.256c-.548.538-1.1 1.065-1.648 1.608A225.909 225.909 0 0066.767 136H120v16H57.5a221.144 221.144 0 00-16.26 40H120v16H37.138a225.353 225.353 0 00-4.982 40H344v-40h-80v-16h144v16h-48v40h72v16H208v40h208v16h-88v40h32v16h-96v40h80v16H208v-16h40v-40H66.767a225.909 225.909 0 0030.841 38.392c.544.543 1.1 1.07 1.648 1.608H160v16h-42.6A224.175 224.175 0 00360 454.431V400a8 8 0 012.343-5.657l32-32A8 8 0 01400 360zm48-112h16v16h-16zM168 80h16v16h-16zm83.977 88.459c-1.215 15.792-8.453 31.058-20.379 42.984s-27.192 19.164-42.985 20.379q-2.369.182-4.7.182c-14.41 0-27.47-5.2-37.17-14.9-10.744-10.745-15.972-25.614-14.722-41.87 1.215-15.792 8.453-31.057 20.379-42.984 24.954-24.953 63.019-27.492 84.853-5.657 10.747 10.741 15.974 25.607 14.724 41.866zM200 96V80h112v16zm176 56H272v-16h104zM192 432h-16v-16h16z"/><path d="M200 127.683c-12.463 0-25.812 5.406-36.284 15.879-9.228 9.227-14.818 20.91-15.739 32.9-.887 11.524 2.693 21.939 10.082 29.327s17.8 10.966 29.327 10.083c11.987-.922 23.671-6.512 32.9-15.739 9.228-9.228 14.818-20.91 15.739-32.9.887-11.523-2.693-21.939-10.082-29.327-6.871-6.871-16.133-10.223-25.943-10.223zm0 52.163h-16v-16h16zM312 320H136v-16h56v-40H32.156a225.353 225.353 0 004.982 40H88v16H41.24a221.144 221.144 0 0016.26 40H312zm-192 0h-16v-16h16zM448 336h32v16h-32zM376 408h72v-16h-60.687zM376 424h24v16h-24zM344 72h40v16h-40zM440 128v-16h-49.578l24 16zM436.653 176H464v-16h-29.633zM360 40h16v16h-16zM456 128h16v16h-16zM416 424h16v16h-16z"/></svg>